<mxfile host="app.diagrams.net" modified="2022-05-19T03:00:24.541Z" agent="5.0 (Windows NT 10.0; Win64; x64) AppleWebKit/537.36 (KHTML, like Gecko) Chrome/101.0.4951.67 Safari/537.36" etag="5DlThdXl6dzw_3Vxm64q" version="18.0.1" type="github">
  <diagram id="CypA_rfGHD-wefoUaOfs" name="Page-1">
    <mxGraphModel dx="920" dy="1710" grid="1" gridSize="10" guides="1" tooltips="1" connect="1" arrows="1" fold="1" page="1" pageScale="1" pageWidth="827" pageHeight="1169" math="0" shadow="0">
      <root>
        <mxCell id="0" />
        <mxCell id="1" parent="0" />
        <mxCell id="8IJMRO1uzJdaRky7zozO-23" value="Actividad" style="swimlane;fontStyle=1;align=center;verticalAlign=top;childLayout=stackLayout;horizontal=1;startSize=0;horizontalStack=0;resizeParent=1;resizeParentMax=0;resizeLast=0;collapsible=1;marginBottom=0;" parent="1" vertex="1" collapsed="1">
          <mxGeometry x="414" y="40" width="90" height="26" as="geometry">
            <mxRectangle x="770" y="270" width="365" height="240" as="alternateBounds" />
          </mxGeometry>
        </mxCell>
        <mxCell id="8IJMRO1uzJdaRky7zozO-24" value="- titulo: String &#xa;- descripción: String&#xa;- autor: String&#xa;- tipo: String&#xa;- fecha: LocalDate&#xa;- hora_inicio: LocalTime&#xa;- hora_final: LocalTime&#xa;- tiempo_invertido: Double" style="text;strokeColor=none;fillColor=none;align=left;verticalAlign=top;spacingLeft=4;spacingRight=4;overflow=hidden;rotatable=0;points=[[0,0.5],[1,0.5]];portConstraint=eastwest;" parent="8IJMRO1uzJdaRky7zozO-23" vertex="1">
          <mxGeometry y="26" width="365" height="124" as="geometry" />
        </mxCell>
        <mxCell id="8IJMRO1uzJdaRky7zozO-25" value="" style="line;strokeWidth=1;fillColor=none;align=left;verticalAlign=middle;spacingTop=-1;spacingLeft=3;spacingRight=3;rotatable=0;labelPosition=right;points=[];portConstraint=eastwest;" parent="8IJMRO1uzJdaRky7zozO-23" vertex="1">
          <mxGeometry y="150" width="365" height="8" as="geometry" />
        </mxCell>
        <mxCell id="8IJMRO1uzJdaRky7zozO-26" value="+ modificar_fecha_y_hora(String fecha,String hora_inicio):void&#xa;+ tiempo_invertido(): void&#xa;+ ActividadCrono(String titulo, String descripcion, String autor,&#xa;String tipo, LocalDate fecha, LocalTime hora_inicial ,&#xa;LocalTime hora_final, Double tiempo_invertido): void" style="text;strokeColor=none;fillColor=none;align=left;verticalAlign=top;spacingLeft=4;spacingRight=4;overflow=hidden;rotatable=0;points=[[0,0.5],[1,0.5]];portConstraint=eastwest;" parent="8IJMRO1uzJdaRky7zozO-23" vertex="1">
          <mxGeometry y="158" width="365" height="82" as="geometry" />
        </mxCell>
        <mxCell id="8IJMRO1uzJdaRky7zozO-27" value="Reporte" style="swimlane;fontStyle=1;align=center;verticalAlign=top;childLayout=stackLayout;horizontal=1;startSize=26;horizontalStack=0;resizeParent=1;resizeParentMax=0;resizeLast=0;collapsible=1;marginBottom=0;" parent="1" vertex="1" collapsed="1">
          <mxGeometry x="260" y="-139" width="80" height="26" as="geometry">
            <mxRectangle x="-70" y="9" width="280" height="140" as="alternateBounds" />
          </mxGeometry>
        </mxCell>
        <mxCell id="8IJMRO1uzJdaRky7zozO-28" value="- Nombre_Participante: String&#xa;- tiempo_invertido: Double&#xa;- tiempo_invertido_tipo: HashMap&lt;String,Double&gt;&#xa;- tiempo_invertido_dia: HashMap&lt;String,Double&gt;" style="text;strokeColor=none;fillColor=none;align=left;verticalAlign=top;spacingLeft=4;spacingRight=4;overflow=hidden;rotatable=0;points=[[0,0.5],[1,0.5]];portConstraint=eastwest;" parent="8IJMRO1uzJdaRky7zozO-27" vertex="1">
          <mxGeometry y="26" width="280" height="74" as="geometry" />
        </mxCell>
        <mxCell id="8IJMRO1uzJdaRky7zozO-29" value="" style="line;strokeWidth=1;fillColor=none;align=left;verticalAlign=middle;spacingTop=-1;spacingLeft=3;spacingRight=3;rotatable=0;labelPosition=right;points=[];portConstraint=eastwest;" parent="8IJMRO1uzJdaRky7zozO-27" vertex="1">
          <mxGeometry y="100" width="280" height="8" as="geometry" />
        </mxCell>
        <mxCell id="8IJMRO1uzJdaRky7zozO-30" value="+ getters and setters()" style="text;strokeColor=none;fillColor=none;align=left;verticalAlign=top;spacingLeft=4;spacingRight=4;overflow=hidden;rotatable=0;points=[[0,0.5],[1,0.5]];portConstraint=eastwest;" parent="8IJMRO1uzJdaRky7zozO-27" vertex="1">
          <mxGeometry y="108" width="280" height="32" as="geometry" />
        </mxCell>
        <mxCell id="8IJMRO1uzJdaRky7zozO-31" value="Proyecto" style="swimlane;fontStyle=1;align=center;verticalAlign=top;childLayout=stackLayout;horizontal=1;startSize=26;horizontalStack=0;resizeParent=1;resizeParentMax=0;resizeLast=0;collapsible=1;marginBottom=0;" parent="1" vertex="1" collapsed="1">
          <mxGeometry x="418" y="-110" width="80" height="26" as="geometry">
            <mxRectangle x="284" y="-20" width="351" height="198" as="alternateBounds" />
          </mxGeometry>
        </mxCell>
        <mxCell id="8IJMRO1uzJdaRky7zozO-32" value="- nombre: String&#xa;- descripción: String&#xa;- fecha_Inicio: LocalDate&#xa;- fecha_final: LocalDate&#xa;- Participantes:HashMap&lt;String,Participante&gt;" style="text;strokeColor=none;fillColor=none;align=left;verticalAlign=top;spacingLeft=4;spacingRight=4;overflow=hidden;rotatable=0;points=[[0,0.5],[1,0.5]];portConstraint=eastwest;" parent="8IJMRO1uzJdaRky7zozO-31" vertex="1">
          <mxGeometry y="26" width="351" height="84" as="geometry" />
        </mxCell>
        <mxCell id="8IJMRO1uzJdaRky7zozO-33" value="" style="line;strokeWidth=1;fillColor=none;align=left;verticalAlign=middle;spacingTop=-1;spacingLeft=3;spacingRight=3;rotatable=0;labelPosition=right;points=[];portConstraint=eastwest;" parent="8IJMRO1uzJdaRky7zozO-31" vertex="1">
          <mxGeometry y="110" width="351" height="8" as="geometry" />
        </mxCell>
        <mxCell id="8IJMRO1uzJdaRky7zozO-34" value="+ agregar_participante(String nombre, String correo): void&#xa;+ eliminar_participante(String nombre):void&#xa;+ Reporte realizar_reporte_participante(String nombre): Reporte&#xa;+ calcular_tiempo_invertidototal(): Double&#xa;+ getters and setter()" style="text;strokeColor=none;fillColor=none;align=left;verticalAlign=top;spacingLeft=4;spacingRight=4;overflow=hidden;rotatable=0;points=[[0,0.5],[1,0.5]];portConstraint=eastwest;" parent="8IJMRO1uzJdaRky7zozO-31" vertex="1">
          <mxGeometry y="118" width="351" height="80" as="geometry" />
        </mxCell>
        <mxCell id="8IJMRO1uzJdaRky7zozO-35" value="Participante" style="swimlane;fontStyle=1;align=center;verticalAlign=top;childLayout=stackLayout;horizontal=1;startSize=26;horizontalStack=0;resizeParent=1;resizeParentMax=0;resizeLast=0;collapsible=1;marginBottom=0;" parent="1" vertex="1" collapsed="1">
          <mxGeometry x="408" y="-40" width="100" height="26" as="geometry">
            <mxRectangle x="257.5" y="230" width="404" height="320" as="alternateBounds" />
          </mxGeometry>
        </mxCell>
        <mxCell id="8IJMRO1uzJdaRky7zozO-36" value="- nombre: String&#xa;- correo: String&#xa;- dueno: Boolean&#xa;- Actividades: HashMap &lt;String, ArrayList&lt;Actividad&gt;&gt;" style="text;strokeColor=none;fillColor=none;align=left;verticalAlign=top;spacingLeft=4;spacingRight=4;overflow=hidden;rotatable=0;points=[[0,0.5],[1,0.5]];portConstraint=eastwest;" parent="8IJMRO1uzJdaRky7zozO-35" vertex="1">
          <mxGeometry y="26" width="404" height="64" as="geometry" />
        </mxCell>
        <mxCell id="8IJMRO1uzJdaRky7zozO-37" value="" style="line;strokeWidth=1;fillColor=none;align=left;verticalAlign=middle;spacingTop=-1;spacingLeft=3;spacingRight=3;rotatable=0;labelPosition=right;points=[];portConstraint=eastwest;" parent="8IJMRO1uzJdaRky7zozO-35" vertex="1">
          <mxGeometry y="90" width="404" height="8" as="geometry" />
        </mxCell>
        <mxCell id="8IJMRO1uzJdaRky7zozO-38" value="+ agregar_actividadActividad_valorespordefecto(String titulo, &#xa;String descripcion, String autor, String tipo ,String hora_final): void&#xa;&#xa;+ agregar_actividadActividad_valoresmodificados(String titulo, &#xa;String descripcion, String autor, String tipo ,String fecha,String hora_incio,&#xa;String hora_final): void&#xa;&#xa;+agregar_actividadActividad_Crono(String titulo, String descripcion, &#xa;String autor, String tipo, LocalDate fecha, LocalTime hora_inicial ,&#xa;LocalTime hora_final, Double tiempo_invertido): void&#xa;&#xa;+ calcular_tiempo_promedio_tipoActividad() : HashMap&lt;String,Double&gt;&#xa;+ calcular_tiempo_tareaconvarias_Actividades(): Double" style="text;strokeColor=none;fillColor=none;align=left;verticalAlign=top;spacingLeft=4;spacingRight=4;overflow=hidden;rotatable=0;points=[[0,0.5],[1,0.5]];portConstraint=eastwest;" parent="8IJMRO1uzJdaRky7zozO-35" vertex="1">
          <mxGeometry y="98" width="404" height="222" as="geometry" />
        </mxCell>
        <mxCell id="8IJMRO1uzJdaRky7zozO-39" value="" style="endArrow=diamondThin;endFill=0;endSize=24;html=1;curved=1;exitX=0.5;exitY=0;exitDx=0;exitDy=0;entryX=0.494;entryY=0.993;entryDx=0;entryDy=0;entryPerimeter=0;" parent="1" source="8IJMRO1uzJdaRky7zozO-35" target="8IJMRO1uzJdaRky7zozO-34" edge="1">
          <mxGeometry width="160" relative="1" as="geometry">
            <mxPoint x="270" y="610" as="sourcePoint" />
            <mxPoint x="420" y="390" as="targetPoint" />
          </mxGeometry>
        </mxCell>
        <mxCell id="8IJMRO1uzJdaRky7zozO-40" value="Use" style="endArrow=classicThin;endSize=8;dashed=1;html=1;edgeStyle=orthogonalEdgeStyle;endFill=1;" parent="1" source="8IJMRO1uzJdaRky7zozO-45" target="8IJMRO1uzJdaRky7zozO-27" edge="1">
          <mxGeometry x="0.0314" y="-13" width="160" relative="1" as="geometry">
            <mxPoint x="440" y="99.99999999999989" as="sourcePoint" />
            <mxPoint x="145" y="-90" as="targetPoint" />
            <mxPoint as="offset" />
          </mxGeometry>
        </mxCell>
        <mxCell id="8IJMRO1uzJdaRky7zozO-41" value="Cronometro" style="swimlane;fontStyle=1;align=center;verticalAlign=top;childLayout=stackLayout;horizontal=1;startSize=26;horizontalStack=0;resizeParent=1;resizeParentMax=0;resizeLast=0;collapsible=1;marginBottom=0;" parent="1" vertex="1" collapsed="1">
          <mxGeometry x="570" y="-139" width="100" height="26" as="geometry">
            <mxRectangle x="750" y="-32" width="220" height="214" as="alternateBounds" />
          </mxGeometry>
        </mxCell>
        <mxCell id="8IJMRO1uzJdaRky7zozO-42" value="- tiempo_invertido: Double&#xa;- fecha: LocalDate: &#xa;- fecha_inicio: LocalTime&#xa;- fecha_final: LocalTime&#xa;- in_Hora: LocalTime&#xa;-tiempos: ArrayList &lt;Double&gt;" style="text;strokeColor=none;fillColor=none;align=left;verticalAlign=top;spacingLeft=4;spacingRight=4;overflow=hidden;rotatable=0;points=[[0,0.5],[1,0.5]];portConstraint=eastwest;" parent="8IJMRO1uzJdaRky7zozO-41" vertex="1">
          <mxGeometry y="26" width="220" height="94" as="geometry" />
        </mxCell>
        <mxCell id="8IJMRO1uzJdaRky7zozO-43" value="" style="line;strokeWidth=1;fillColor=none;align=left;verticalAlign=middle;spacingTop=-1;spacingLeft=3;spacingRight=3;rotatable=0;labelPosition=right;points=[];portConstraint=eastwest;" parent="8IJMRO1uzJdaRky7zozO-41" vertex="1">
          <mxGeometry y="120" width="220" height="8" as="geometry" />
        </mxCell>
        <mxCell id="8IJMRO1uzJdaRky7zozO-44" value="+ iniciar_crono():void&#xa;+ pausar_crono(): void&#xa;+ reanudar(): void&#xa;+ terminar_crono(): void&#xa;+getters and setters" style="text;strokeColor=none;fillColor=none;align=left;verticalAlign=top;spacingLeft=4;spacingRight=4;overflow=hidden;rotatable=0;points=[[0,0.5],[1,0.5]];portConstraint=eastwest;" parent="8IJMRO1uzJdaRky7zozO-41" vertex="1">
          <mxGeometry y="128" width="220" height="86" as="geometry" />
        </mxCell>
        <mxCell id="8IJMRO1uzJdaRky7zozO-80" style="edgeStyle=orthogonalEdgeStyle;rounded=0;orthogonalLoop=1;jettySize=auto;html=1;entryX=1;entryY=0.5;entryDx=0;entryDy=0;endArrow=block;endFill=1;" parent="1" source="8IJMRO1uzJdaRky7zozO-45" target="8IJMRO1uzJdaRky7zozO-67" edge="1">
          <mxGeometry relative="1" as="geometry" />
        </mxCell>
        <mxCell id="8IJMRO1uzJdaRky7zozO-83" style="edgeStyle=orthogonalEdgeStyle;rounded=0;orthogonalLoop=1;jettySize=auto;html=1;entryX=0;entryY=0.5;entryDx=0;entryDy=0;endArrow=block;endFill=1;endSize=6;" parent="1" source="8IJMRO1uzJdaRky7zozO-45" target="8IJMRO1uzJdaRky7zozO-65" edge="1">
          <mxGeometry relative="1" as="geometry" />
        </mxCell>
        <mxCell id="8IJMRO1uzJdaRky7zozO-87" style="edgeStyle=orthogonalEdgeStyle;rounded=0;orthogonalLoop=1;jettySize=auto;html=1;endArrow=block;endFill=1;endSize=6;strokeColor=#000000;entryX=1;entryY=0.25;entryDx=0;entryDy=0;" parent="1" source="8IJMRO1uzJdaRky7zozO-45" target="8IJMRO1uzJdaRky7zozO-88" edge="1">
          <mxGeometry relative="1" as="geometry">
            <mxPoint x="360" y="-330" as="targetPoint" />
          </mxGeometry>
        </mxCell>
        <mxCell id="8IJMRO1uzJdaRky7zozO-45" value="VENTANA" style="swimlane;fontStyle=0;align=center;verticalAlign=top;childLayout=stackLayout;horizontal=1;startSize=26;horizontalStack=0;resizeParent=1;resizeParentMax=0;resizeLast=0;collapsible=1;marginBottom=0;" parent="1" vertex="1" collapsed="1">
          <mxGeometry x="413" y="-200" width="90" height="26" as="geometry">
            <mxRectangle x="329.5" y="-270" width="260" height="34" as="alternateBounds" />
          </mxGeometry>
        </mxCell>
        <mxCell id="8IJMRO1uzJdaRky7zozO-47" value="" style="line;strokeWidth=1;fillColor=none;align=left;verticalAlign=middle;spacingTop=-1;spacingLeft=3;spacingRight=3;rotatable=0;labelPosition=right;points=[];portConstraint=eastwest;" parent="8IJMRO1uzJdaRky7zozO-45" vertex="1">
          <mxGeometry y="26" width="260" height="8" as="geometry" />
        </mxCell>
        <mxCell id="8IJMRO1uzJdaRky7zozO-49" value="Use" style="endArrow=classicThin;endSize=9;dashed=1;html=1;edgeStyle=orthogonalEdgeStyle;endFill=1;" parent="1" source="8IJMRO1uzJdaRky7zozO-45" target="8IJMRO1uzJdaRky7zozO-41" edge="1">
          <mxGeometry x="0.0542" y="13" width="160" relative="1" as="geometry">
            <mxPoint x="369.5" y="-169.92307692307713" as="sourcePoint" />
            <mxPoint x="155" y="-80.00000000000023" as="targetPoint" />
            <mxPoint as="offset" />
          </mxGeometry>
        </mxCell>
        <mxCell id="8IJMRO1uzJdaRky7zozO-50" value="1 Participantes *&#xa;" style="text;strokeColor=none;fillColor=none;align=left;verticalAlign=middle;spacingLeft=4;spacingRight=4;overflow=hidden;points=[[0,0.5],[1,0.5]];portConstraint=eastwest;rotatable=0;fontSize=11;" parent="1" vertex="1">
          <mxGeometry x="460" y="-71" width="90" height="21" as="geometry" />
        </mxCell>
        <mxCell id="8IJMRO1uzJdaRky7zozO-51" value="1. .. 1" style="text;strokeColor=none;fillColor=none;align=left;verticalAlign=middle;spacingLeft=4;spacingRight=4;overflow=hidden;points=[[0,0.5],[1,0.5]];portConstraint=eastwest;rotatable=0;fontSize=11;" parent="1" vertex="1">
          <mxGeometry x="480" y="-160" width="90" height="21" as="geometry" />
        </mxCell>
        <mxCell id="8IJMRO1uzJdaRky7zozO-54" style="edgeStyle=orthogonalEdgeStyle;rounded=0;orthogonalLoop=1;jettySize=auto;html=1;exitX=0.75;exitY=0;exitDx=0;exitDy=0;" parent="1" source="8IJMRO1uzJdaRky7zozO-31" target="8IJMRO1uzJdaRky7zozO-45" edge="1">
          <mxGeometry relative="1" as="geometry">
            <mxPoint x="478" y="-170" as="targetPoint" />
            <mxPoint x="458.4999999999998" y="-120" as="sourcePoint" />
          </mxGeometry>
        </mxCell>
        <mxCell id="8IJMRO1uzJdaRky7zozO-59" value="1 Actividades *&#xa;" style="text;strokeColor=none;fillColor=none;align=left;verticalAlign=middle;spacingLeft=4;spacingRight=4;overflow=hidden;points=[[0,0.5],[1,0.5]];portConstraint=eastwest;rotatable=0;fontSize=11;" parent="1" vertex="1">
          <mxGeometry x="460" y="10.810000000000002" width="90" height="21" as="geometry" />
        </mxCell>
        <mxCell id="8IJMRO1uzJdaRky7zozO-60" value="" style="endArrow=diamondThin;endFill=0;endSize=24;html=1;curved=1;entryX=0.5;entryY=1;entryDx=0;entryDy=0;exitX=0.5;exitY=0;exitDx=0;exitDy=0;" parent="1" source="8IJMRO1uzJdaRky7zozO-23" target="8IJMRO1uzJdaRky7zozO-35" edge="1">
          <mxGeometry width="160" relative="1" as="geometry">
            <mxPoint x="676.48" y="53.574845318015434" as="sourcePoint" />
            <mxPoint x="569.9999999999995" y="55.18800000000016" as="targetPoint" />
          </mxGeometry>
        </mxCell>
        <mxCell id="8IJMRO1uzJdaRky7zozO-62" value="Use" style="endArrow=classicThin;endSize=9;dashed=1;html=1;edgeStyle=orthogonalEdgeStyle;exitX=0.5;exitY=1;exitDx=0;exitDy=0;entryX=0.25;entryY=0;entryDx=0;entryDy=0;endFill=1;" parent="1" source="8IJMRO1uzJdaRky7zozO-45" target="8IJMRO1uzJdaRky7zozO-31" edge="1">
          <mxGeometry x="0.2707" y="-8" width="160" relative="1" as="geometry">
            <mxPoint x="423" y="-177" as="sourcePoint" />
            <mxPoint x="350.0000000000001" y="-110" as="targetPoint" />
            <mxPoint as="offset" />
          </mxGeometry>
        </mxCell>
        <mxCell id="8IJMRO1uzJdaRky7zozO-78" style="edgeStyle=orthogonalEdgeStyle;rounded=0;orthogonalLoop=1;jettySize=auto;html=1;entryX=0.5;entryY=0;entryDx=0;entryDy=0;endArrow=block;endFill=0;" parent="1" source="8IJMRO1uzJdaRky7zozO-63" target="8IJMRO1uzJdaRky7zozO-45" edge="1">
          <mxGeometry relative="1" as="geometry" />
        </mxCell>
        <mxCell id="8IJMRO1uzJdaRky7zozO-63" value="PANEL INPUTS" style="swimlane;fontStyle=0;align=center;verticalAlign=top;childLayout=stackLayout;horizontal=1;startSize=26;horizontalStack=0;resizeParent=1;resizeParentMax=0;resizeLast=0;collapsible=1;marginBottom=0;" parent="1" vertex="1" collapsed="1">
          <mxGeometry x="504" y="-366" width="120" height="26" as="geometry">
            <mxRectangle x="329.5" y="-270" width="260" height="34" as="alternateBounds" />
          </mxGeometry>
        </mxCell>
        <mxCell id="8IJMRO1uzJdaRky7zozO-64" value="" style="line;strokeWidth=1;fillColor=none;align=left;verticalAlign=middle;spacingTop=-1;spacingLeft=3;spacingRight=3;rotatable=0;labelPosition=right;points=[];portConstraint=eastwest;" parent="8IJMRO1uzJdaRky7zozO-63" vertex="1">
          <mxGeometry y="26" width="260" height="8" as="geometry" />
        </mxCell>
        <mxCell id="8IJMRO1uzJdaRky7zozO-65" value="FRAME INFO PROYECTO" style="swimlane;fontStyle=0;align=center;verticalAlign=top;childLayout=stackLayout;horizontal=1;startSize=26;horizontalStack=0;resizeParent=1;resizeParentMax=0;resizeLast=0;collapsible=1;marginBottom=0;" parent="1" vertex="1" collapsed="1">
          <mxGeometry x="610" y="-250" width="180" height="26" as="geometry">
            <mxRectangle x="329.5" y="-270" width="260" height="34" as="alternateBounds" />
          </mxGeometry>
        </mxCell>
        <mxCell id="8IJMRO1uzJdaRky7zozO-66" value="" style="line;strokeWidth=1;fillColor=none;align=left;verticalAlign=middle;spacingTop=-1;spacingLeft=3;spacingRight=3;rotatable=0;labelPosition=right;points=[];portConstraint=eastwest;" parent="8IJMRO1uzJdaRky7zozO-65" vertex="1">
          <mxGeometry y="26" width="260" height="8" as="geometry" />
        </mxCell>
        <mxCell id="8IJMRO1uzJdaRky7zozO-67" value="FRAME REPORTE Part.." style="swimlane;fontStyle=0;align=center;verticalAlign=top;childLayout=stackLayout;horizontal=1;startSize=26;horizontalStack=0;resizeParent=1;resizeParentMax=0;resizeLast=0;collapsible=1;marginBottom=0;" parent="1" vertex="1" collapsed="1">
          <mxGeometry x="130" y="-250" width="180" height="26" as="geometry">
            <mxRectangle x="329.5" y="-270" width="260" height="34" as="alternateBounds" />
          </mxGeometry>
        </mxCell>
        <mxCell id="8IJMRO1uzJdaRky7zozO-68" value="" style="line;strokeWidth=1;fillColor=none;align=left;verticalAlign=middle;spacingTop=-1;spacingLeft=3;spacingRight=3;rotatable=0;labelPosition=right;points=[];portConstraint=eastwest;" parent="8IJMRO1uzJdaRky7zozO-67" vertex="1">
          <mxGeometry y="26" width="260" height="8" as="geometry" />
        </mxCell>
        <mxCell id="8IJMRO1uzJdaRky7zozO-75" style="edgeStyle=orthogonalEdgeStyle;rounded=0;orthogonalLoop=1;jettySize=auto;html=1;entryX=1;entryY=0.5;entryDx=0;entryDy=0;endArrow=classicThin;endFill=1;exitX=1;exitY=0.5;exitDx=0;exitDy=0;" parent="1" source="8IJMRO1uzJdaRky7zozO-69" target="8IJMRO1uzJdaRky7zozO-35" edge="1">
          <mxGeometry relative="1" as="geometry">
            <Array as="points">
              <mxPoint x="840" y="-403" />
              <mxPoint x="840" y="-27" />
            </Array>
          </mxGeometry>
        </mxCell>
        <mxCell id="8IJMRO1uzJdaRky7zozO-77" value="OBSERVER" style="edgeLabel;html=1;align=center;verticalAlign=middle;resizable=0;points=[];" parent="8IJMRO1uzJdaRky7zozO-75" vertex="1" connectable="0">
          <mxGeometry x="-0.3731" y="-2" relative="1" as="geometry">
            <mxPoint y="38" as="offset" />
          </mxGeometry>
        </mxCell>
        <mxCell id="8IJMRO1uzJdaRky7zozO-79" style="edgeStyle=orthogonalEdgeStyle;rounded=0;orthogonalLoop=1;jettySize=auto;html=1;endArrow=block;endFill=0;entryX=0.5;entryY=0;entryDx=0;entryDy=0;" parent="1" source="8IJMRO1uzJdaRky7zozO-69" target="8IJMRO1uzJdaRky7zozO-45" edge="1">
          <mxGeometry relative="1" as="geometry">
            <mxPoint x="460" y="-200" as="targetPoint" />
          </mxGeometry>
        </mxCell>
        <mxCell id="8IJMRO1uzJdaRky7zozO-69" value="MATRIZ ACTIVIDADES" style="swimlane;fontStyle=0;align=center;verticalAlign=top;childLayout=stackLayout;horizontal=1;startSize=26;horizontalStack=0;resizeParent=1;resizeParentMax=0;resizeLast=0;collapsible=1;marginBottom=0;" parent="1" vertex="1" collapsed="1">
          <mxGeometry x="580" y="-416" width="160" height="26" as="geometry">
            <mxRectangle x="329.5" y="-270" width="260" height="34" as="alternateBounds" />
          </mxGeometry>
        </mxCell>
        <mxCell id="8IJMRO1uzJdaRky7zozO-70" value="" style="line;strokeWidth=1;fillColor=none;align=left;verticalAlign=middle;spacingTop=-1;spacingLeft=3;spacingRight=3;rotatable=0;labelPosition=right;points=[];portConstraint=eastwest;" parent="8IJMRO1uzJdaRky7zozO-69" vertex="1">
          <mxGeometry y="26" width="260" height="8" as="geometry" />
        </mxCell>
        <mxCell id="8IJMRO1uzJdaRky7zozO-85" style="edgeStyle=orthogonalEdgeStyle;rounded=0;orthogonalLoop=1;jettySize=auto;html=1;entryX=0.5;entryY=0;entryDx=0;entryDy=0;endArrow=block;endFill=1;endSize=6;strokeColor=#000000;" parent="1" source="8IJMRO1uzJdaRky7zozO-71" target="8IJMRO1uzJdaRky7zozO-65" edge="1">
          <mxGeometry relative="1" as="geometry" />
        </mxCell>
        <mxCell id="8IJMRO1uzJdaRky7zozO-71" value="PANEL INFO " style="swimlane;fontStyle=0;align=center;verticalAlign=top;childLayout=stackLayout;horizontal=1;startSize=26;horizontalStack=0;resizeParent=1;resizeParentMax=0;resizeLast=0;collapsible=1;marginBottom=0;" parent="1" vertex="1" collapsed="1">
          <mxGeometry x="645" y="-300" width="110" height="26" as="geometry">
            <mxRectangle x="329.5" y="-270" width="260" height="34" as="alternateBounds" />
          </mxGeometry>
        </mxCell>
        <mxCell id="8IJMRO1uzJdaRky7zozO-72" value="" style="line;strokeWidth=1;fillColor=none;align=left;verticalAlign=middle;spacingTop=-1;spacingLeft=3;spacingRight=3;rotatable=0;labelPosition=right;points=[];portConstraint=eastwest;" parent="8IJMRO1uzJdaRky7zozO-71" vertex="1">
          <mxGeometry y="26" width="260" height="8" as="geometry" />
        </mxCell>
        <mxCell id="8IJMRO1uzJdaRky7zozO-86" style="edgeStyle=orthogonalEdgeStyle;rounded=0;orthogonalLoop=1;jettySize=auto;html=1;endArrow=block;endFill=1;endSize=6;strokeColor=#000000;" parent="1" source="8IJMRO1uzJdaRky7zozO-73" target="8IJMRO1uzJdaRky7zozO-67" edge="1">
          <mxGeometry relative="1" as="geometry" />
        </mxCell>
        <mxCell id="8IJMRO1uzJdaRky7zozO-73" value="    PANEL REPORTE Part..." style="swimlane;fontStyle=0;align=center;verticalAlign=top;childLayout=stackLayout;horizontal=1;startSize=26;horizontalStack=0;resizeParent=1;resizeParentMax=0;resizeLast=0;collapsible=1;marginBottom=0;" parent="1" vertex="1" collapsed="1">
          <mxGeometry x="140" y="-300" width="160" height="26" as="geometry">
            <mxRectangle x="329.5" y="-270" width="260" height="34" as="alternateBounds" />
          </mxGeometry>
        </mxCell>
        <mxCell id="8IJMRO1uzJdaRky7zozO-74" value="" style="line;strokeWidth=1;fillColor=none;align=left;verticalAlign=middle;spacingTop=-1;spacingLeft=3;spacingRight=3;rotatable=0;labelPosition=right;points=[];portConstraint=eastwest;" parent="8IJMRO1uzJdaRky7zozO-73" vertex="1">
          <mxGeometry y="26" width="260" height="8" as="geometry" />
        </mxCell>
        <mxCell id="8IJMRO1uzJdaRky7zozO-84" value="" style="endArrow=none;dashed=1;html=1;rounded=0;endSize=6;fillColor=#f8cecc;strokeColor=#FF5500;" parent="1" edge="1">
          <mxGeometry width="50" height="50" relative="1" as="geometry">
            <mxPoint x="60" y="-160" as="sourcePoint" />
            <mxPoint x="840" y="-160" as="targetPoint" />
          </mxGeometry>
        </mxCell>
        <mxCell id="8IJMRO1uzJdaRky7zozO-88" value="FRAME WBS" style="swimlane;fontStyle=0;align=center;verticalAlign=top;childLayout=stackLayout;horizontal=1;startSize=26;horizontalStack=0;resizeParent=1;resizeParentMax=0;resizeLast=0;collapsible=1;marginBottom=0;" parent="1" vertex="1" collapsed="1">
          <mxGeometry x="160" y="-366" width="150" height="26" as="geometry">
            <mxRectangle x="329.5" y="-270" width="260" height="34" as="alternateBounds" />
          </mxGeometry>
        </mxCell>
        <mxCell id="8IJMRO1uzJdaRky7zozO-89" value="" style="line;strokeWidth=1;fillColor=none;align=left;verticalAlign=middle;spacingTop=-1;spacingLeft=3;spacingRight=3;rotatable=0;labelPosition=right;points=[];portConstraint=eastwest;" parent="8IJMRO1uzJdaRky7zozO-88" vertex="1">
          <mxGeometry y="26" width="260" height="8" as="geometry" />
        </mxCell>
        <mxCell id="8IJMRO1uzJdaRky7zozO-92" style="edgeStyle=orthogonalEdgeStyle;rounded=0;orthogonalLoop=1;jettySize=auto;html=1;endArrow=block;endFill=1;endSize=6;strokeColor=#000000;" parent="1" source="8IJMRO1uzJdaRky7zozO-90" target="8IJMRO1uzJdaRky7zozO-88" edge="1">
          <mxGeometry relative="1" as="geometry" />
        </mxCell>
        <mxCell id="8IJMRO1uzJdaRky7zozO-90" value="PANEL WBS" style="swimlane;fontStyle=0;align=center;verticalAlign=top;childLayout=stackLayout;horizontal=1;startSize=26;horizontalStack=0;resizeParent=1;resizeParentMax=0;resizeLast=0;collapsible=1;marginBottom=0;" parent="1" vertex="1" collapsed="1">
          <mxGeometry x="182.5" y="-416" width="105" height="26" as="geometry">
            <mxRectangle x="329.5" y="-270" width="260" height="34" as="alternateBounds" />
          </mxGeometry>
        </mxCell>
        <mxCell id="8IJMRO1uzJdaRky7zozO-91" value="" style="line;strokeWidth=1;fillColor=none;align=left;verticalAlign=middle;spacingTop=-1;spacingLeft=3;spacingRight=3;rotatable=0;labelPosition=right;points=[];portConstraint=eastwest;" parent="8IJMRO1uzJdaRky7zozO-90" vertex="1">
          <mxGeometry y="26" width="260" height="8" as="geometry" />
        </mxCell>
        <mxCell id="8IJMRO1uzJdaRky7zozO-94" style="edgeStyle=orthogonalEdgeStyle;rounded=0;orthogonalLoop=1;jettySize=auto;html=1;entryX=0;entryY=0.5;entryDx=0;entryDy=0;endArrow=classicThin;endFill=1;exitX=0;exitY=0.5;exitDx=0;exitDy=0;" parent="1" source="8IJMRO1uzJdaRky7zozO-90" target="8IJMRO1uzJdaRky7zozO-35" edge="1">
          <mxGeometry relative="1" as="geometry">
            <mxPoint x="720" y="-317" as="sourcePoint" />
            <mxPoint x="518" y="-17.000000000000227" as="targetPoint" />
            <Array as="points">
              <mxPoint x="60" y="-403" />
              <mxPoint x="60" y="-27" />
            </Array>
          </mxGeometry>
        </mxCell>
        <mxCell id="8IJMRO1uzJdaRky7zozO-96" style="edgeStyle=orthogonalEdgeStyle;rounded=0;orthogonalLoop=1;jettySize=auto;html=1;entryX=0;entryY=0.5;entryDx=0;entryDy=0;endArrow=classicThin;endFill=1;exitX=0;exitY=0.5;exitDx=0;exitDy=0;" parent="1" source="8IJMRO1uzJdaRky7zozO-90" target="8IJMRO1uzJdaRky7zozO-31" edge="1">
          <mxGeometry relative="1" as="geometry">
            <mxPoint x="192.5" y="-393.0000000000002" as="sourcePoint" />
            <mxPoint x="418" y="-17.000000000000227" as="targetPoint" />
            <Array as="points">
              <mxPoint x="60" y="-403" />
              <mxPoint x="60" y="-97" />
            </Array>
          </mxGeometry>
        </mxCell>
        <mxCell id="8IJMRO1uzJdaRky7zozO-98" value="OBSERVER" style="edgeLabel;html=1;align=center;verticalAlign=middle;resizable=0;points=[];" parent="8IJMRO1uzJdaRky7zozO-96" vertex="1" connectable="0">
          <mxGeometry x="0.2807" y="-3" relative="1" as="geometry">
            <mxPoint x="-78" y="-106" as="offset" />
          </mxGeometry>
        </mxCell>
      </root>
    </mxGraphModel>
  </diagram>
</mxfile>
